<svg width="103" height="93" viewBox="0 0 103 93" fill="none" xmlns="http://www.w3.org/2000/svg">
<circle cx="1.5" cy="1.5" r="1.5" fill="#D9D9D9"/>
<circle cx="1.5" cy="11.5" r="1.5" fill="#D9D9D9"/>
<circle cx="1.5" cy="21.5" r="1.5" fill="#D9D9D9"/>
<circle cx="1.5" cy="31.5" r="1.5" fill="#D9D9D9"/>
<circle cx="1.5" cy="41.5" r="1.5" fill="#D9D9D9"/>
<circle cx="1.5" cy="51.5" r="1.5" fill="#D9D9D9"/>
<circle cx="1.5" cy="61.5" r="1.5" fill="#D9D9D9"/>
<circle cx="1.5" cy="71.5" r="1.5" fill="#D9D9D9"/>
<circle cx="1.5" cy="81.5" r="1.5" fill="#D9D9D9"/>
<circle cx="1.5" cy="91.5" r="1.5" fill="#D9D9D9"/>
<circle cx="11.5" cy="1.5" r="1.5" fill="#D9D9D9"/>
<circle cx="11.5" cy="11.5" r="1.5" fill="#D9D9D9"/>
<circle cx="11.5" cy="21.5" r="1.5" fill="#D9D9D9"/>
<circle cx="11.5" cy="31.5" r="1.5" fill="#D9D9D9"/>
<circle cx="11.5" cy="41.5" r="1.5" fill="#D9D9D9"/>
<circle cx="11.5" cy="51.5" r="1.5" fill="#D9D9D9"/>
<circle cx="11.5" cy="61.5" r="1.5" fill="#D9D9D9"/>
<circle cx="11.5" cy="71.5" r="1.5" fill="#D9D9D9"/>
<circle cx="11.5" cy="81.5" r="1.5" fill="#D9D9D9"/>
<circle cx="11.5" cy="91.5" r="1.5" fill="#D9D9D9"/>
<circle cx="21.5" cy="1.5" r="1.5" fill="#D9D9D9"/>
<circle cx="21.5" cy="11.5" r="1.5" fill="#D9D9D9"/>
<circle cx="21.5" cy="21.5" r="1.5" fill="#D9D9D9"/>
<circle cx="21.5" cy="31.5" r="1.5" fill="#D9D9D9"/>
<circle cx="21.5" cy="41.5" r="1.5" fill="#D9D9D9"/>
<circle cx="21.5" cy="51.5" r="1.5" fill="#D9D9D9"/>
<circle cx="21.5" cy="61.5" r="1.5" fill="#D9D9D9"/>
<circle cx="21.5" cy="71.5" r="1.5" fill="#D9D9D9"/>
<circle cx="21.5" cy="81.5" r="1.5" fill="#D9D9D9"/>
<circle cx="21.5" cy="91.5" r="1.5" fill="#D9D9D9"/>
<circle cx="31.5" cy="1.5" r="1.5" fill="#D9D9D9"/>
<circle cx="31.5" cy="11.5" r="1.5" fill="#D9D9D9"/>
<circle cx="31.5" cy="21.5" r="1.5" fill="#D9D9D9"/>
<circle cx="31.5" cy="31.5" r="1.5" fill="#D9D9D9"/>
<circle cx="31.5" cy="41.5" r="1.5" fill="#D9D9D9"/>
<circle cx="31.5" cy="51.5" r="1.5" fill="#D9D9D9"/>
<circle cx="31.5" cy="61.5" r="1.5" fill="#D9D9D9"/>
<circle cx="31.5" cy="71.5" r="1.5" fill="#D9D9D9"/>
<circle cx="31.5" cy="81.5" r="1.5" fill="#D9D9D9"/>
<circle cx="31.5" cy="91.5" r="1.5" fill="#D9D9D9"/>
<circle cx="41.5" cy="1.5" r="1.5" fill="#D9D9D9"/>
<circle cx="41.5" cy="11.5" r="1.5" fill="#D9D9D9"/>
<circle cx="41.5" cy="21.5" r="1.5" fill="#D9D9D9"/>
<circle cx="41.5" cy="31.5" r="1.5" fill="#D9D9D9"/>
<circle cx="41.5" cy="41.5" r="1.5" fill="#D9D9D9"/>
<circle cx="41.5" cy="51.5" r="1.5" fill="#D9D9D9"/>
<circle cx="41.5" cy="61.5" r="1.5" fill="#D9D9D9"/>
<circle cx="41.5" cy="71.5" r="1.5" fill="#D9D9D9"/>
<circle cx="41.5" cy="81.5" r="1.5" fill="#D9D9D9"/>
<circle cx="41.5" cy="91.5" r="1.5" fill="#D9D9D9"/>
<circle cx="51.5" cy="1.5" r="1.5" fill="#D9D9D9"/>
<circle cx="51.5" cy="11.5" r="1.5" fill="#D9D9D9"/>
<circle cx="51.5" cy="21.5" r="1.5" fill="#D9D9D9"/>
<circle cx="51.5" cy="31.5" r="1.5" fill="#D9D9D9"/>
<circle cx="51.5" cy="41.5" r="1.5" fill="#D9D9D9"/>
<circle cx="51.5" cy="51.5" r="1.5" fill="#D9D9D9"/>
<circle cx="51.5" cy="61.5" r="1.5" fill="#D9D9D9"/>
<circle cx="51.5" cy="71.5" r="1.5" fill="#D9D9D9"/>
<circle cx="51.5" cy="81.5" r="1.5" fill="#D9D9D9"/>
<circle cx="51.5" cy="91.5" r="1.5" fill="#D9D9D9"/>
<circle cx="61.5" cy="1.5" r="1.5" fill="#D9D9D9"/>
<circle cx="61.5" cy="11.5" r="1.5" fill="#D9D9D9"/>
<circle cx="61.5" cy="21.5" r="1.5" fill="#D9D9D9"/>
<circle cx="61.5" cy="31.5" r="1.5" fill="#D9D9D9"/>
<circle cx="61.5" cy="41.5" r="1.5" fill="#D9D9D9"/>
<circle cx="61.5" cy="51.5" r="1.5" fill="#D9D9D9"/>
<circle cx="61.5" cy="61.5" r="1.5" fill="#D9D9D9"/>
<circle cx="61.5" cy="71.5" r="1.5" fill="#D9D9D9"/>
<circle cx="61.5" cy="81.5" r="1.5" fill="#D9D9D9"/>
<circle cx="61.5" cy="91.5" r="1.5" fill="#D9D9D9"/>
<circle cx="71.5" cy="1.5" r="1.5" fill="#D9D9D9"/>
<circle cx="71.5" cy="11.5" r="1.5" fill="#D9D9D9"/>
<circle cx="71.5" cy="21.5" r="1.5" fill="#D9D9D9"/>
<circle cx="71.5" cy="31.5" r="1.5" fill="#D9D9D9"/>
<circle cx="71.5" cy="41.5" r="1.5" fill="#D9D9D9"/>
<circle cx="71.5" cy="51.5" r="1.5" fill="#D9D9D9"/>
<circle cx="71.5" cy="61.5" r="1.5" fill="#D9D9D9"/>
<circle cx="71.5" cy="71.5" r="1.5" fill="#D9D9D9"/>
<circle cx="71.5" cy="81.5" r="1.5" fill="#D9D9D9"/>
<circle cx="71.5" cy="91.5" r="1.5" fill="#D9D9D9"/>
<circle cx="81.5" cy="1.5" r="1.5" fill="#D9D9D9"/>
<circle cx="81.5" cy="11.5" r="1.5" fill="#D9D9D9"/>
<circle cx="81.5" cy="21.5" r="1.5" fill="#D9D9D9"/>
<circle cx="81.5" cy="31.5" r="1.5" fill="#D9D9D9"/>
<circle cx="81.5" cy="41.5" r="1.5" fill="#D9D9D9"/>
<circle cx="81.5" cy="51.5" r="1.5" fill="#D9D9D9"/>
<circle cx="81.5" cy="61.5" r="1.5" fill="#D9D9D9"/>
<circle cx="81.5" cy="71.5" r="1.5" fill="#D9D9D9"/>
<circle cx="81.5" cy="81.5" r="1.5" fill="#D9D9D9"/>
<circle cx="81.5" cy="91.5" r="1.5" fill="#D9D9D9"/>
<circle cx="91.5" cy="1.5" r="1.5" fill="#D9D9D9"/>
<circle cx="91.5" cy="11.5" r="1.5" fill="#D9D9D9"/>
<circle cx="91.5" cy="21.5" r="1.5" fill="#D9D9D9"/>
<circle cx="91.5" cy="31.5" r="1.5" fill="#D9D9D9"/>
<circle cx="91.5" cy="41.5" r="1.5" fill="#D9D9D9"/>
<circle cx="91.5" cy="51.5" r="1.5" fill="#D9D9D9"/>
<circle cx="91.5" cy="61.5" r="1.5" fill="#D9D9D9"/>
<circle cx="91.5" cy="71.5" r="1.5" fill="#D9D9D9"/>
<circle cx="91.5" cy="81.5" r="1.5" fill="#D9D9D9"/>
<circle cx="91.5" cy="91.5" r="1.5" fill="#D9D9D9"/>
<circle cx="101.5" cy="1.5" r="1.5" fill="#D9D9D9"/>
<circle cx="101.5" cy="11.5" r="1.5" fill="#D9D9D9"/>
<circle cx="101.5" cy="21.5" r="1.5" fill="#D9D9D9"/>
<circle cx="101.5" cy="31.5" r="1.5" fill="#D9D9D9"/>
<circle cx="101.5" cy="41.5" r="1.5" fill="#D9D9D9"/>
<circle cx="101.5" cy="51.5" r="1.5" fill="#D9D9D9"/>
<circle cx="101.5" cy="61.5" r="1.5" fill="#D9D9D9"/>
<circle cx="101.5" cy="71.5" r="1.5" fill="#D9D9D9"/>
<circle cx="101.5" cy="81.5" r="1.5" fill="#D9D9D9"/>
<circle cx="101.5" cy="91.5" r="1.5" fill="#D9D9D9"/>
</svg>
