<svg width="101" height="101" viewBox="0 0 101 101" fill="none" xmlns="http://www.w3.org/2000/svg">
<path fill-rule="evenodd" clip-rule="evenodd" d="M24.4838 93.4021C23.4963 92.7865 22.5324 92.1377 21.5936 91.4573L69.1991 4.39323C70.2839 4.8194 71.3495 5.28213 72.3944 5.77982L24.4838 93.4021ZM27.8548 95.3253C28.8795 95.858 29.9255 96.3565 30.9915 96.8192L78.779 9.42233C77.8198 8.77696 76.8365 8.16372 75.8305 7.58427L27.8548 95.3253ZM38.0308 99.2643C36.883 98.9599 35.7524 98.6161 34.6403 98.2345L81.9384 11.7327C82.865 12.4675 83.7644 13.2343 84.6352 14.0311L38.0308 99.2643ZM41.9743 100.141C43.1813 100.358 44.4045 100.533 45.6423 100.663L89.9239 19.6778C89.1515 18.7142 88.3438 17.7793 87.5027 16.8752L41.9743 100.141ZM53.9141 100.854C52.594 100.932 51.2614 100.958 49.9185 100.931L92.4582 23.1312C93.1993 24.2369 93.897 25.3731 94.5493 26.5373L53.9141 100.854ZM58.611 100.352C60.1143 100.119 61.5971 99.8186 63.056 99.4535L98.3035 34.9905C97.819 33.5523 97.2705 32.142 96.6613 30.7634L58.611 100.352ZM73.5923 95.5029C71.9076 96.3627 70.1694 97.1293 68.3848 97.7964L99.7848 40.3699C100.182 42.2109 100.477 44.0874 100.664 45.9925L73.5923 95.5029ZM80.2445 91.4255C83.067 89.3774 85.6713 87.0394 88.0112 84.4517L99.1579 64.0658C100.018 60.89 100.576 57.5817 100.797 54.1713C100.805 54.046 100.813 53.9209 100.82 53.7958L80.2445 91.4255ZM62.0298 2.18588C63.1978 2.45099 64.3494 2.75659 65.4829 3.10105L18.5009 89.0249C17.5937 88.2519 16.7149 87.4473 15.8662 86.613L62.0298 2.18588ZM58.0122 1.4451C56.7808 1.26955 55.5339 1.13833 54.2729 1.05319L10.7225 80.701C11.4692 81.708 12.2531 82.6864 13.0723 83.6342L58.0122 1.4451ZM45.8218 1.19022C47.1704 1.05416 48.5334 0.972203 49.9086 0.946432L8.27722 77.0847C7.56346 75.9233 6.89612 74.7313 6.27758 73.5113L45.8218 1.19022ZM41.002 1.91648C39.4484 2.22922 37.9192 2.61448 36.4184 3.0688L2.7843 64.5811C3.21604 66.1038 3.71853 67.5985 4.28823 69.0611L41.002 1.91648ZM25.3797 7.93813C27.1471 6.88701 28.9831 5.94236 30.8783 5.11243L1.51461 58.8147C1.19476 56.797 0.996586 54.742 0.927406 52.6581L25.3797 7.93813ZM1.43407 43.643C3.21408 31.4821 9.32007 20.8516 18.0588 13.2385L1.43407 43.643Z" fill="#D9D9D9"/>
</svg>
